<?xml version="1.0" encoding="UTF-8"?>
<svg version="1.1" xmlns="http://www.w3.org/2000/svg" width="512" height="512">
<path d="M0 0 C1.75373932 0.00323273 1.75373932 0.00323273 3.54290771 0.00653076 C69.24458603 0.19959703 143.30107091 8.80483429 193.5625 55.3125 C194.33134521 56.0235791 194.33134521 56.0235791 195.11572266 56.74902344 C231.06363142 90.43542057 245.38652612 138.37912206 252.3125 185.8125 C252.46434753 186.83621704 252.46434753 186.83621704 252.6192627 187.88061523 C255.91068232 210.40028279 256.95134516 233.01179902 256.875 255.75 C256.87284485 256.91915955 256.8706897 258.08831909 256.86846924 259.29290771 C256.68721609 320.97450706 249.73686582 393.77063189 207.5625 442.3125 C206.84320313 443.14136719 206.12390625 443.97023438 205.3828125 444.82421875 C203.14342131 447.35418838 200.86682268 449.84159978 198.5625 452.3125 C197.86511719 453.06402344 197.16773438 453.81554687 196.44921875 454.58984375 C186.79968062 464.6274803 175.58415013 472.38071811 163.5625 479.3125 C162.47066406 479.95832031 161.37882812 480.60414063 160.25390625 481.26953125 C85.69928595 524.08527531 -26.29276361 520.73397104 -113.8984375 499.1953125 C-139.76290373 491.9368449 -164.99746816 481.07130109 -185.4375 463.3125 C-186.26636719 462.59320313 -187.09523438 461.87390625 -187.94921875 461.1328125 C-190.47918838 458.89342131 -192.96659978 456.61682268 -195.4375 454.3125 C-196.56478516 453.26642578 -196.56478516 453.26642578 -197.71484375 452.19921875 C-207.7524803 442.54968062 -215.50571811 431.33415013 -222.4375 419.3125 C-223.08332031 418.22066406 -223.72914063 417.12882812 -224.39453125 416.00390625 C-265.20381114 344.94312163 -262.36090812 242.38189353 -243 144.25 C-235.51585568 117.53178996 -224.81422293 91.46374776 -206.4375 70.3125 C-205.71820313 69.48363281 -204.99890625 68.65476562 -204.2578125 67.80078125 C-202.01842131 65.27081162 -199.74182268 62.78340022 -197.4375 60.3125 C-196.74011719 59.56097656 -196.04273438 58.80945312 -195.32421875 58.03515625 C-162.81677801 24.22028645 -114.88536349 11.12555206 -69.9375 4.5625 C-69.25502197 4.46126831 -68.57254395 4.36003662 -67.86938477 4.2557373 C-45.34971721 0.96431768 -22.73820098 -0.07634516 0 0 Z " fill="#FF4155" transform="translate(255.4375,-0.3125)"/>
<path d="M0 0 C4.31192746 -0.01304832 8.62384975 -0.02088502 12.93579102 -0.02783203 C14.14792519 -0.03156326 15.36005936 -0.03529449 16.60892487 -0.03913879 C25.77453943 -0.05020076 34.80633869 0.28273152 43.9375 1.125 C45.00531204 1.22053162 45.00531204 1.22053162 46.09469604 1.31799316 C98.66391664 6.08936553 153.18995827 18.16316217 193 55 C193.51256348 55.47405273 194.02512695 55.94810547 194.55322266 56.43652344 C230.50113142 90.12292057 244.82402612 138.06662206 251.75 185.5 C251.90184753 186.52371704 251.90184753 186.52371704 252.0567627 187.56811523 C255.34818232 210.08778279 256.38884516 232.69929902 256.3125 255.4375 C256.31034485 256.60665955 256.3081897 257.77581909 256.30596924 258.98040771 C256.12471609 320.66200706 249.17436582 393.45813189 207 442 C206.28070313 442.82886719 205.56140625 443.65773438 204.8203125 444.51171875 C202.58092131 447.04168838 200.30432268 449.52909978 198 452 C197.30261719 452.75152344 196.60523438 453.50304687 195.88671875 454.27734375 C186.23718062 464.3149803 175.02165013 472.06821811 163 479 C161.36224609 479.96873047 161.36224609 479.96873047 159.69140625 480.95703125 C125.10204398 500.82124994 83.16553662 507.36547062 43.9375 510.875 C42.63433838 510.99520508 41.33117676 511.11541016 39.98852539 511.23925781 C30.95764954 511.95838827 21.99150197 512.05570762 12.93579102 512.02783203 C11.68874641 512.02582291 10.44170181 512.02381378 9.15686798 512.02174377 C6.10456854 512.01653546 3.05228946 512.00923653 0 512 C-0.00423194 510.96141751 -0.00846388 509.92283503 -0.01282406 508.85278034 C-0.11710017 483.30619775 -0.22596191 457.75963762 -0.33933926 432.21309376 C-0.39407209 419.85780924 -0.44743905 407.50252195 -0.49731445 395.1472168 C-0.54090798 384.34901188 -0.58734491 373.55082312 -0.63687855 362.75264376 C-0.66289289 357.06177927 -0.68770091 351.37091671 -0.70907402 345.68003273 C-0.80204952 321.18584658 -1.02133202 296.69899021 -1.48486328 272.20874023 C-1.51635493 270.52988218 -1.51635493 270.52988218 -1.54848278 268.8171078 C-1.77415024 256.98173308 -2.0477627 245.1550691 -2.55859375 233.328125 C-3.26841126 215.73633749 -3.11200098 198.13165701 -3.06866455 180.52886963 C-3.05823596 175.8278449 -3.05382612 171.12681433 -3.04882812 166.42578125 C-3.03826262 157.28383946 -3.02131086 148.14192264 -3 139 C0.62533718 142.58973153 4.03747138 146.27791633 7.3125 150.1875 C7.79178955 150.75557373 8.2710791 151.32364746 8.76489258 151.90893555 C11.63778113 155.32789845 14.43351228 158.79653939 17.1875 162.3125 C20.35799711 166.33634002 23.79767398 169.90243251 27.53125 173.40625 C29 175 29 175 29 177 C29.59329102 177.26345215 30.18658203 177.5269043 30.79785156 177.79833984 C33.09210572 179.0502599 34.46308962 180.32089258 36.234375 182.2265625 C39.9486641 186.04963003 43.97727097 189.20335961 48.25 192.375 C49.75222106 193.50920052 51.25352241 194.64462021 52.75390625 195.78125 C53.47852051 196.32910156 54.20313477 196.87695312 54.94970703 197.44140625 C69.58174031 208.56439987 69.58174031 208.56439987 74 215 C74.41121094 215.59425781 74.82242188 216.18851563 75.24609375 216.80078125 C79.88186945 225.06176562 79.12815583 236.18294653 77.375 245.22265625 C73.72318291 256.55307088 66.1216388 265.2531781 55.98828125 271.17578125 C50.24704622 274.09415396 44.50329643 274.78680596 38.13671875 275.41015625 C34.86294354 276.02577276 33.31067785 276.62777867 31 279 C30.44915881 282.78703318 30.48756676 285.04833828 32.3125 288.4375 C38.2547952 291.89232279 45.55748282 290.27591194 52 288.875 C65.70220845 285.05112787 77.52395137 276.14857903 85 264 C93.01296252 249.592077 95.1807445 235.54907464 92.34765625 219.24609375 C87.79271657 204.2519361 76.33644638 194.58979887 64.2019043 185.62890625 C48.63176988 174.11013845 34.59865087 161.17390332 22.86328125 145.72265625 C19.04409577 140.70241778 14.98450084 135.8794053 10.9453125 131.03588867 C10.38972656 130.36662354 9.83414062 129.6973584 9.26171875 129.0078125 C8.77662842 128.42660645 8.29153809 127.84540039 7.79174805 127.24658203 C7.20047119 126.50520996 6.60919434 125.76383789 6 125 C5.51703555 124.48524046 5.0340711 123.97048092 4.53647137 123.4401226 C-0.51450468 117.61344459 -0.8334742 112.87368075 -0.68115234 105.3515625 C-0.6820285 104.20922653 -0.68290466 103.06689056 -0.68380737 101.88993835 C-0.67964509 98.13425036 -0.63305219 94.38037393 -0.5859375 90.625 C-0.57474066 88.0132749 -0.56620278 85.40153715 -0.56021118 82.78979492 C-0.54161676 76.63091546 -0.49245474 70.4726806 -0.43211424 64.31408405 C-0.36487915 57.29840395 -0.3320177 50.28269187 -0.30194163 43.26676941 C-0.2393496 28.84418154 -0.13392124 14.4220998 0 0 Z " fill="#EF0061" transform="translate(256,0)"/>
<path d="M0 0 C2.4375 1.9375 2.4375 1.9375 5 5 C5.84111328 5.91265625 5.84111328 5.91265625 6.69921875 6.84375 C11.26312241 11.80572233 15.43593613 17.03161662 19.57617188 22.34448242 C28.02786756 33.18514066 36.56019941 43.99586351 46 54 C46.7528125 54.80566406 47.505625 55.61132812 48.28125 56.44140625 C55.9684757 64.41565498 64.63000358 70.9775247 73.46875 77.6015625 C86.65910848 87.5219941 97.26252756 97.36660446 101 114 C101.43252944 117.59544253 101.52530005 121.13081185 101.5 124.75 C101.49427979 125.71010986 101.48855957 126.67021973 101.48266602 127.65942383 C101.07748081 143.90366727 93.53727273 157.51578941 81.86328125 168.640625 C71.11922001 177.49384873 58.4712225 182.87919164 44.359375 182.41015625 C42 182 42 182 38.8125 179.9375 C36.52530329 176.23066396 36.22172653 174.2805041 37 170 C40.67968008 166.26630627 43.41828894 165.51125476 48.5625 165.125 C58.17829902 163.98482656 67.22982966 160.08506198 74 153 C82.83728716 141.0447955 85.9821315 129.7704012 84 115 C80.11638062 101.29310808 68.195383 94.07944878 57.40795898 85.95532227 C48.99675172 79.57611463 41.45634144 72.4681769 34 65 C32.86691406 63.91912109 32.86691406 63.91912109 31.7109375 62.81640625 C25.34734849 56.67628775 19.9525512 50.08410295 14.59960938 43.0667572 C12.70032038 40.61280233 10.76344133 38.19086664 8.82275391 35.76953125 C8.10584381 34.87468018 7.38893372 33.9798291 6.65029907 33.05786133 C6.10570038 32.37876709 5.56110168 31.69967285 5 31 C4.97650312 40.94711932 4.95889952 50.8942317 4.94818783 60.84137344 C4.94303865 65.46359509 4.93609218 70.08579733 4.92456055 74.70800781 C4.87498399 95.13136652 5.01339809 115.49092934 5.87814331 135.89923096 C6.61247059 154.58494547 6.76047025 173.30295028 7 192 C7.00883209 192.67319023 7.01766418 193.34638046 7.02676392 194.0399704 C7.1476773 203.2961884 7.23676463 212.55204866 7.28610229 221.80892944 C7.30151504 224.5797819 7.32619179 227.35030432 7.35916138 230.1210022 C7.40482231 234.01816951 7.41670369 237.91506822 7.42578125 241.8125 C7.44324402 242.95522873 7.46070679 244.09795746 7.47869873 245.27531433 C7.43996608 259.94964047 2.54786555 271.21159822 -7.4375 281.8125 C-17.50829598 291.28304987 -29.69082973 294.6693583 -43.32543945 294.54052734 C-57.0230831 293.97240217 -67.05886847 287.39210256 -76.25 277.6875 C-85.88926503 266.39688678 -88.07913371 253.61046259 -87.23828125 239.21386719 C-85.87463359 226.5442391 -77.7277531 216.78107006 -68.3984375 208.7890625 C-57.21745123 200.44884799 -45.53012223 198.82346763 -32 200 C-23.3654994 201.58299178 -17.10847838 205.03619362 -10 210 C-9.88123965 191.89361416 -9.98777072 173.80622151 -10.41446877 155.70439529 C-11.04395419 128.39742707 -11.25014524 101.09041696 -11.28926182 73.77680779 C-11.30019133 66.23646498 -11.32537236 58.69645546 -11.36874419 51.15622675 C-11.40243105 45.08633578 -11.41437156 39.01659705 -11.41844749 32.94660568 C-11.42330692 30.39883625 -11.4349024 27.85107009 -11.45348549 25.3033638 C-11.47765064 21.79133161 -11.47696136 18.28015495 -11.4699707 14.76806641 C-11.48278076 13.72956039 -11.49559082 12.69105438 -11.50878906 11.62107849 C-11.45802363 4.66584573 -11.45802363 4.66584573 -9.18547058 1.3621521 C-5.90564474 -0.68208574 -3.7825869 -0.59725056 0 0 Z " fill="#FFFDFD" transform="translate(249,109)"/>
<path d="M0 0 C4.05436706 3.89727904 7.60587919 8.05527854 11.125 12.4375 C11.6926709 13.13907227 12.2603418 13.84064453 12.84521484 14.56347656 C16.0330364 18.51420319 19.17321195 22.49802759 22.27929688 26.51318359 C27.84241018 33.6931524 33.73519067 40.42523759 40 47 C40.72574219 47.77859375 41.45148438 48.5571875 42.19921875 49.359375 C49.53832796 57.01049809 58.01059039 63.26432989 66.47265625 69.60546875 C79.66283989 79.52245495 90.2632078 89.36963184 94 106 C94.43252944 109.59544253 94.52530005 113.13081185 94.5 116.75 C94.49427979 117.71010986 94.48855957 118.67021973 94.48266602 119.65942383 C94.07748081 135.90366727 86.53727273 149.51578941 74.86328125 160.640625 C64.11922001 169.49384873 51.4712225 174.87919164 37.359375 174.41015625 C35 174 35 174 31.8125 171.9375 C29.52530329 168.23066396 29.22172653 166.2805041 30 162 C33.67968008 158.26630627 36.41828894 157.51125476 41.5625 157.125 C51.17829902 155.98482656 60.22982966 152.08506198 67 145 C75.83728716 133.0447955 78.9821315 121.7704012 77 107 C73.11638062 93.29310808 61.195383 86.07944878 50.40795898 77.95532227 C41.99675172 71.57611463 34.45634144 64.4681769 27 57 C26.24460937 56.27941406 25.48921875 55.55882812 24.7109375 54.81640625 C18.29903976 48.62967549 12.74135662 42.00327415 7.44799805 34.8449707 C5.98600735 32.92323624 5.98600735 32.92323624 4.10864258 31.00463867 C0.21118315 26.68929722 -1.46165562 23.77231447 -1.46484375 17.87109375 C-1.32694376 15.72379384 -1.15045438 13.57865944 -0.9375 11.4375 C-0.85822266 10.33341797 -0.77894531 9.22933594 -0.69726562 8.09179688 C-0.49843177 5.38999562 -0.26547187 2.69592912 0 0 Z " fill="#FEE8EC" transform="translate(256,117)"/>
<path d="M0 0 C2.76181877 2.23353437 3.90262106 3.39523355 4.47657394 6.95973587 C4.46551243 8.12119503 4.45445091 9.28265419 4.4430542 10.47930908 C4.44238835 11.12792805 4.44172249 11.77654703 4.44103646 12.44482112 C4.43391814 14.61646091 4.39805478 16.78666475 4.36230469 18.95800781 C4.35131343 20.51521703 4.34209513 22.07243962 4.33451843 23.62966919 C4.30891976 27.8568729 4.258489 32.08346047 4.20364666 36.31037235 C4.15053884 40.7278574 4.1202012 45.14549688 4.08746338 49.56317139 C4.022003 57.92849331 3.93602147 66.29347382 3.84269357 74.65852618 C3.73743978 84.18188664 3.65502218 93.70540168 3.5745368 103.22899866 C3.40846112 122.81961153 3.21366158 142.40985214 3 162 C2.67 162 2.34 162 2 162 C1.98969254 161.39818909 1.97938507 160.79637817 1.96876526 160.17633057 C1.85816138 153.74884446 1.74386397 147.32143067 1.62768555 140.89404297 C1.58512554 138.51482701 1.5434204 136.13559556 1.50268555 133.75634766 C1.30485128 122.23311238 1.08991788 110.71679169 0.60665894 99.20153809 C-0.19026414 79.97874484 -0.11602093 60.76451841 -0.06866455 41.52886963 C-0.05823596 36.8278449 -0.05382612 32.12681433 -0.04882812 27.42578125 C-0.03826262 18.28383946 -0.02131086 9.14192264 0 0 Z " fill="#FE5567" transform="translate(253,139)"/>
</svg>
